<svg width="48" height="47" viewBox="0 0 48 47" fill="none" xmlns="http://www.w3.org/2000/svg">
<g clip-path="url(#clip0_660_99)">
<path d="M16.1773 21.0362H15.0431C13.4952 20.9803 11.9524 21.2431 10.5103 21.8082C9.06825 22.3734 7.75772 23.2289 6.66006 24.3217L6.34717 24.6867V35.4816H11.6664V29.3541L12.3834 28.5457L12.7094 28.1677C14.4067 26.4239 16.5199 25.1408 18.85 24.439C17.6838 23.5509 16.7638 22.3796 16.1773 21.0362Z" fill="#6C4097"/>
<path d="M41.3915 24.2826C40.2938 23.1898 38.9833 22.3343 37.5413 21.7691C36.0992 21.204 34.5564 20.9412 33.0085 20.9972C32.5338 20.9997 32.0595 21.0258 31.5874 21.0754C30.99 22.3357 30.0952 23.4319 28.98 24.2695C31.4677 24.9571 33.7213 26.3092 35.4986 28.1807L35.8246 28.5458L36.5286 29.3541V35.4947H41.6653V24.6476L41.3915 24.2826Z" fill="#6C4097"/>
<path d="M15.0044 18.494H15.4085C15.2208 16.8816 15.5037 15.2493 16.2232 13.7941C16.9426 12.339 18.0679 11.1232 19.4631 10.2935C18.9574 9.52084 18.2596 8.89278 17.4382 8.47081C16.6168 8.04884 15.6998 7.84744 14.7772 7.88632C13.8545 7.9252 12.9578 8.20304 12.1748 8.69261C11.3918 9.18219 10.7493 9.86674 10.3104 10.6792C9.8714 11.4917 9.65097 12.4042 9.67064 13.3275C9.69032 14.2507 9.94944 15.1531 10.4226 15.9461C10.8958 16.7391 11.5668 17.3957 12.37 17.8514C13.1732 18.3072 14.0809 18.5466 15.0044 18.5461V18.494Z" fill="#6C4097"/>
<path d="M32.383 17.5162C32.3978 17.8159 32.3978 18.1161 32.383 18.4158C32.6331 18.4558 32.8858 18.4776 33.1391 18.4809H33.3868C34.3063 18.4319 35.1973 18.1457 35.9732 17.65C36.7492 17.1544 37.3836 16.4663 37.8147 15.6528C38.2457 14.8392 38.4588 13.9279 38.4331 13.0075C38.4074 12.0872 38.1439 11.1891 37.6681 10.4009C37.1924 9.6126 36.5206 8.96096 35.7182 8.50938C34.9158 8.0578 34.0102 7.82168 33.0895 7.82399C32.1688 7.82631 31.2644 8.06699 30.4643 8.5226C29.6642 8.97821 28.9957 9.63322 28.5239 10.4239C29.7039 11.1943 30.6742 12.2456 31.3477 13.4834C32.0213 14.7213 32.377 16.107 32.383 17.5162Z" fill="#6C4097"/>
<path d="M23.8306 23.3569C27.0492 23.3569 29.6583 20.7478 29.6583 17.5292C29.6583 14.3107 27.0492 11.7015 23.8306 11.7015C20.6121 11.7015 18.0029 14.3107 18.0029 17.5292C18.0029 20.7478 20.6121 23.3569 23.8306 23.3569Z" fill="#CDBADA"/>
<path d="M24.1433 26.4598C22.4408 26.3918 20.7421 26.6686 19.1492 27.2735C17.5563 27.8783 16.102 28.7989 14.8738 29.9799L14.5479 30.3449V38.5975C14.5529 38.8663 14.6109 39.1315 14.7185 39.3779C14.8261 39.6243 14.9812 39.8471 15.1749 40.0335C15.3686 40.22 15.5972 40.3664 15.8475 40.4645C16.0978 40.5626 16.365 40.6105 16.6338 40.6053H31.6137C31.8825 40.6105 32.1497 40.5626 32.4 40.4645C32.6504 40.3664 32.8789 40.22 33.0726 40.0335C33.2663 39.8471 33.4214 39.6243 33.529 39.3779C33.6366 39.1315 33.6946 38.8663 33.6997 38.5975V30.371L33.3868 29.9799C32.1669 28.7947 30.7178 27.8711 29.1284 27.2658C27.5389 26.6605 25.8425 26.3862 24.1433 26.4598Z" fill="#CDBADA"/>
</g>
<defs>
<clipPath id="clip0_660_99">
<rect width="46.9344" height="46.9344" fill="white" transform="translate(0.532715 -0.00598145)"/>
</clipPath>
</defs>
</svg>
