<svg width="38" height="38" viewBox="0 0 38 38" fill="none" xmlns="http://www.w3.org/2000/svg">
<path d="M33.6365 3.89431C33.5297 3.77689 33.4001 3.68236 33.2557 3.61642C33.1113 3.55048 32.955 3.51451 32.7962 3.51069C32.6375 3.50686 32.4797 3.53525 32.3322 3.59415C32.1848 3.65305 32.0508 3.74123 31.9384 3.85336L31.0338 4.75362C30.9241 4.86333 30.8625 5.01208 30.8625 5.16719C30.8625 5.32229 30.9241 5.47104 31.0338 5.58075L31.8631 6.40861C31.9174 6.46323 31.9821 6.50657 32.0532 6.53614C32.1244 6.56571 32.2007 6.58094 32.2777 6.58094C32.3548 6.58094 32.4311 6.56571 32.5023 6.53614C32.5734 6.50657 32.638 6.46323 32.6924 6.40861L33.5744 5.53102C34.0205 5.08564 34.0622 4.36017 33.6365 3.89431ZM29.2047 6.58194L16.0028 19.7604C15.9228 19.8401 15.8646 19.9391 15.8339 20.0478L15.2232 21.8666C15.2086 21.916 15.2076 21.9684 15.2202 22.0183C15.2329 22.0682 15.2588 22.1137 15.2952 22.1501C15.3316 22.1865 15.3771 22.2124 15.427 22.2251C15.4769 22.2377 15.5293 22.2367 15.5786 22.2221L17.396 21.6114C17.5047 21.5807 17.6037 21.5225 17.6834 21.4425L30.8619 8.23912C30.9838 8.11589 31.0522 7.94954 31.0522 7.77619C31.0522 7.60284 30.9838 7.43649 30.8619 7.31326L30.1342 6.58194C30.0108 6.4589 29.8437 6.38981 29.6695 6.38981C29.4952 6.38981 29.3281 6.4589 29.2047 6.58194Z" fill="#6C4097"/>
<path d="M28.2539 14.1629L19.3398 23.0945C18.9952 23.4399 18.5718 23.6961 18.1061 23.8412L16.2119 24.4753C15.7624 24.6022 15.2872 24.607 14.8352 24.4892C14.3832 24.3713 13.9708 24.135 13.6405 23.8048C13.3102 23.4745 13.0739 23.0621 12.9561 22.6101C12.8382 22.1581 12.843 21.6828 12.97 21.2333L13.604 19.3392C13.7487 18.8736 14.0044 18.4502 14.3492 18.1054L23.2809 9.18985C23.3628 9.10807 23.4186 9.00385 23.4412 8.89036C23.4638 8.77688 23.4523 8.65923 23.4081 8.5523C23.3639 8.44537 23.2889 8.35395 23.1927 8.28962C23.0965 8.22528 22.9834 8.19091 22.8677 8.19086H7.60568C6.51951 8.19086 5.47782 8.62234 4.70978 9.39038C3.94174 10.1584 3.51025 11.2001 3.51025 12.2863V29.8381C3.51025 30.9243 3.94174 31.966 4.70978 32.734C5.47782 33.5021 6.51951 33.9335 7.60568 33.9335H25.1575C26.2437 33.9335 27.2854 33.5021 28.0534 32.734C28.8214 31.966 29.2529 30.9243 29.2529 29.8381V14.5761C29.2529 14.4603 29.2185 14.3472 29.1542 14.2511C29.0898 14.1549 28.9984 14.0799 28.8915 14.0357C28.7846 13.9915 28.6669 13.9799 28.5534 14.0026C28.4399 14.0252 28.3357 14.081 28.2539 14.1629Z" fill="#CDBADA"/>
</svg>
