<svg width="71" height="71" viewBox="0 0 71 71" fill="none" xmlns="http://www.w3.org/2000/svg">
<path d="M21.5801 50.2917C10.4442 21.448 26.2201 8.69019 35.5 5.91675C44.78 8.69019 60.5559 21.448 49.4198 50.2917C47.7383 49.3673 42.6 47.5183 35.5 47.5183C28.4 47.5183 23.2618 49.3673 21.5801 50.2917Z" stroke="black" stroke-width="4" stroke-linecap="round" stroke-linejoin="round"/>
<path d="M41.4173 26.6249C41.4173 23.3572 38.7684 20.7083 35.5007 20.7083C32.2329 20.7083 29.584 23.3572 29.584 26.6249C29.584 29.8927 32.2329 32.5416 35.5007 32.5416C38.7684 32.5416 41.4173 29.8927 41.4173 26.6249Z" fill="#6C4099" stroke="#502B7D" stroke-width="4"/>
<path d="M51.7715 46.0246C56.0377 46.4187 61.2612 47.5766 65.029 50.2917C65.029 50.2917 66.5762 35.69 53.2507 32.5417" stroke="black" stroke-width="4" stroke-linecap="round" stroke-linejoin="round"/>
<path d="M19.2285 46.0246C14.9624 46.4187 9.73865 47.5766 5.97097 50.2917C5.97097 50.2917 4.42368 35.69 17.7493 32.5417" stroke="black" stroke-width="4" stroke-linecap="round" stroke-linejoin="round"/>
<path d="M28.1035 56.2083C28.1035 56.2083 29.3362 63.6041 35.4993 65.0833C41.6624 63.6041 42.8952 56.2083 42.8952 56.2083" stroke="#502B7D" stroke-width="4" stroke-linecap="round" stroke-linejoin="round"/>
</svg>
