<svg width="42" height="42" viewBox="0 0 42 42" fill="none" xmlns="http://www.w3.org/2000/svg">
<g clip-path="url(#clip0_660_158)">
<path d="M3.02724 5.18954H38.4892C40.1602 5.18954 41.5164 6.54575 41.5164 8.21678V32.4347C41.5164 33.2376 41.1975 34.0076 40.6298 34.5753C40.0621 35.143 39.2921 35.4619 38.4892 35.4619H3.02724C2.22437 35.4619 1.45438 35.143 0.886658 34.5753C0.31894 34.0076 0 33.2376 0 32.4347L0 8.21678C0 6.54575 1.3562 5.18954 3.02724 5.18954ZM2.59478 12.8217V32.4347C2.59478 32.6734 2.78852 32.8672 3.02724 32.8672H38.4892C38.6039 32.8672 38.7139 32.8216 38.795 32.7405C38.8761 32.6594 38.9217 32.5494 38.9217 32.4347V12.8217L22.4535 23.9498C21.4294 24.6417 20.087 24.6417 19.063 23.9498L2.59478 12.8217ZM2.59478 8.21678V9.69062L20.516 21.7996C20.5876 21.8479 20.6719 21.8737 20.7582 21.8737C20.8445 21.8737 20.9289 21.8479 21.0004 21.7996L38.9217 9.69062V8.21678C38.9217 8.10209 38.8761 7.99209 38.795 7.91099C38.7139 7.82988 38.6039 7.78432 38.4892 7.78432H3.02724C2.91254 7.78432 2.80255 7.82988 2.72144 7.91099C2.64034 7.99209 2.59478 8.10209 2.59478 8.21678Z" fill="#6C4097"/>
</g>
<defs>
<clipPath id="clip0_660_158">
<rect width="41.5164" height="41.5164" fill="white"/>
</clipPath>
</defs>
</svg>
