<svg width="58" height="63" viewBox="0 0 58 63" fill="none" xmlns="http://www.w3.org/2000/svg">
<path d="M52.2359 34.0286C54.6086 30.7273 56 26.7121 56 22.3818C56 11.1253 46.598 2 35 2C23.402 2 14 11.1252 14 22.3818C14 25.5078 14.7251 28.4693 16.0209 31.1169" stroke="#502B7D" stroke-width="4" stroke-linecap="round" stroke-linejoin="round"/>
<path d="M35.4277 14.1161C32.1139 14.1161 29.4277 16.0265 29.4277 18.3831C29.4277 20.7397 32.1139 22.6501 35.4277 22.6501C38.7415 22.6501 41.4277 24.5604 41.4277 26.917C41.4277 29.2735 38.7415 31.184 35.4277 31.184M35.4277 14.1161C38.0401 14.1161 40.2625 15.3035 41.0863 16.9608M35.4277 14.1161V11.2715M35.4277 31.184C32.8153 31.184 30.5929 29.9966 29.7691 28.3393M35.4277 31.184V34.0286" stroke="#502B7D" stroke-width="4" stroke-linecap="round"/>
<path d="M2 37.3999H9.18445C10.0669 37.3999 10.9372 37.5955 11.7265 37.971L17.8524 40.8856C18.6417 41.2612 19.512 41.4565 20.3945 41.4565H23.5223C26.5475 41.4565 29 43.7902 29 46.6688C29 46.7851 28.919 46.8874 28.8014 46.9193L21.1786 48.992C19.8112 49.3637 18.347 49.2342 17.075 48.6288L10.5263 45.5133M29 44.7749L42.7784 40.6122C45.221 39.8637 47.8613 40.7511 49.3913 42.8347C50.4977 44.341 50.0471 46.4983 48.4355 47.4128L25.8887 60.2049C24.4547 61.0185 22.7628 61.2171 21.1855 60.7569L2 55.1587" stroke="black" stroke-width="4" stroke-linecap="round" stroke-linejoin="round"/>
</svg>
