<svg width="43" height="42" viewBox="0 0 43 42" fill="none" xmlns="http://www.w3.org/2000/svg">
<path d="M14.781 20.2933C16.8461 20.2933 18.8266 19.473 20.2869 18.0127C21.7471 16.5525 22.5675 14.5719 22.5675 12.5068C22.5675 10.4417 21.7471 8.4612 20.2869 7.00095C18.8266 5.5407 16.8461 4.72034 14.781 4.72034C12.7159 4.72034 10.7353 5.5407 9.27509 7.00095C7.81484 8.4612 6.99448 10.4417 6.99448 12.5068C6.99448 14.5719 7.81484 16.5525 9.27509 18.0127C10.7353 19.473 12.7159 20.2933 14.781 20.2933ZM14.781 20.2933C17.9158 20.2933 20.6551 21.4769 22.6033 23.4437C23.7583 24.6148 24.6224 26.0406 25.1261 27.6064M14.781 20.2933C8.55178 20.2933 3.87988 24.9652 3.87988 31.1944V38.9809H19.4529M21.0102 32.4776L27.5353 37.4236L38.1405 23.4079" stroke="#6C4097" stroke-width="3"/>
</svg>
