<svg width="43" height="42" viewBox="0 0 43 42" fill="none" xmlns="http://www.w3.org/2000/svg">
<path d="M14.2192 33.1177C14.2192 33.4585 14.0839 33.7852 13.8429 34.0262C13.602 34.2671 13.2752 34.4025 12.9345 34.4025H9.5084C9.16766 34.4025 8.84087 34.2671 8.59993 34.0262C8.35899 33.7852 8.22363 33.4585 8.22363 33.1177C8.22363 32.777 8.35899 32.4502 8.59993 32.2092C8.84087 31.9683 9.16766 31.8329 9.5084 31.8329H12.9345C13.2752 31.8329 13.602 31.9683 13.8429 32.2092C14.0839 32.4502 14.2192 32.777 14.2192 33.1177Z" fill="black"/>
<path opacity="0.4" d="M18.0739 31.4047V10.8484C18.0739 8.45012 18.0739 7.251 17.6079 6.33453C17.1973 5.5283 16.5418 4.87285 15.7356 4.46219C14.8191 3.99625 13.62 3.99625 11.2217 3.99625C8.8235 3.99625 7.62438 3.99625 6.70791 4.46219C5.90168 4.87285 5.24623 5.5283 4.83557 6.33453C4.36963 7.251 4.36963 8.45012 4.36963 10.8484V31.4047C4.36963 33.8029 4.36963 35.0021 4.83557 35.9185C5.24652 36.7241 5.90194 37.3789 6.70791 37.7892C7.62438 38.2568 8.8235 38.2568 11.2217 38.2568C13.62 38.2568 14.8191 38.2568 15.7356 37.7892C16.5415 37.3789 17.197 36.7241 17.6079 35.9185C18.0739 35.0021 18.0739 33.8029 18.0739 31.4047Z" fill="#CDBADA"/>
<path opacity="0.7" d="M18.0735 14.6907V31.4047C18.0735 32.979 18.0735 34.0359 17.9416 34.8359L23.5929 29.1846L33.5936 18.7523C35.2603 17.0341 36.0946 16.1742 36.3961 15.1892C36.654 14.3493 36.6475 13.4505 36.3772 12.6145C36.0603 11.6329 35.2038 10.7764 33.4908 9.06511C31.9491 7.54737 31.1748 6.78679 30.2703 6.47159C29.5259 6.21051 28.7238 6.16012 27.9526 6.32598C27.0155 6.52812 26.1556 7.18592 24.4357 8.50153L23.2126 9.55161L18.0735 14.6907ZM14.6526 38.1249H14.6475V38.1301L14.6526 38.1249Z" fill="#8F68AC"/>
<path d="M28.0333 24.5526H31.6067C34.005 24.5526 35.2041 24.5526 36.1206 25.0202C36.9265 25.4304 37.5819 26.0853 37.9929 26.8909C38.4588 27.8073 38.4588 29.0065 38.4588 31.4047C38.4588 33.8029 38.4588 35.0021 37.9929 35.9185C37.5819 36.7241 36.9265 37.3789 36.1206 37.7892C35.2041 38.2568 34.005 38.2568 31.6067 38.2568H11.2217C12.7925 38.2568 13.8495 38.2568 14.6477 38.1249V38.13L14.6529 38.1249C15.0726 38.0564 15.4203 37.9502 15.7355 37.7909C16.5417 37.3802 17.1972 36.7248 17.6078 35.9185C17.7672 35.6033 17.8734 35.2556 17.9419 34.8359L23.5932 29.1846L28.0333 24.5526Z" fill="#6C4097"/>
</svg>
