<svg width="71" height="71" viewBox="0 0 71 71" fill="none" xmlns="http://www.w3.org/2000/svg">
<path d="M35.4994 65.0833L29.5827 47.3333H5.91602L11.8327 65.0833H35.4994ZM35.4994 65.0833H47.3327H35.4994Z" fill="#6C4099"/>
<path d="M35.4994 65.0833L29.5827 47.3333H5.91602L11.8327 65.0833H35.4994ZM35.4994 65.0833H47.3327" stroke="black" stroke-width="4" stroke-linecap="round" stroke-linejoin="round"/>
<path d="M35.5007 38.4583V36.9791C35.5007 31.4009 35.5007 28.6116 33.7677 26.8787C32.0347 25.1458 29.2456 25.1458 23.6673 25.1458C18.089 25.1458 15.2999 25.1458 13.5669 26.8787C11.834 28.6116 11.834 31.4009 11.834 36.9791V38.4583" stroke="#502B7D" stroke-width="4" stroke-linecap="round" stroke-linejoin="round"/>
<path d="M56.2083 38.4584C56.2083 41.7262 53.5594 44.3751 50.2917 44.3751C47.0239 44.3751 44.375 41.7262 44.375 38.4584C44.375 35.1906 47.0239 32.5417 50.2917 32.5417C53.5594 32.5417 56.2083 35.1906 56.2083 38.4584Z" stroke="black" stroke-width="4"/>
<path d="M29.5833 11.8334C29.5833 15.1011 26.9344 17.7501 23.6667 17.7501C20.399 17.7501 17.75 15.1011 17.75 11.8334C17.75 8.56573 20.399 5.91675 23.6667 5.91675C26.9344 5.91675 29.5833 8.56573 29.5833 11.8334Z" stroke="#502B7D" stroke-width="4"/>
<path d="M41.416 51.7708H59.166C62.4338 51.7708 65.0827 54.4196 65.0827 57.6874V59.1666C65.0827 62.4344 62.4338 65.0833 59.166 65.0833H56.2077" stroke="black" stroke-width="4" stroke-linecap="round"/>
</svg>
