<svg width="54" height="58" viewBox="0 0 54 58" fill="none" xmlns="http://www.w3.org/2000/svg">
<path d="M25.7732 1.00202C25.0043 1.5084 16.5 10.0463 16.2162 10.5998C15.7076 11.5655 16.0151 13.0493 16.8785 13.7677C17.5291 14.3094 18.0732 14.4272 20.0011 14.4272H21.7635V19.9032V25.3793L21.3258 25.1673C20.2258 24.6373 17.6119 23.7894 16.4882 23.6128C16.0979 23.5539 15.542 23.4361 15.2226 23.3655L14.6667 23.236L14.6785 21.3753C14.6904 19.3851 14.6312 19.1377 14.0398 18.5489C13.3301 17.8423 13.0345 17.7246 11.9581 17.7246C11.2839 17.7246 11.071 17.7717 10.6925 18.0308C10.4441 18.2074 8.18499 20.386 5.67746 22.8944C0.768858 27.7934 0.81617 27.7346 0.887138 28.8886C0.958106 30.0898 0.887137 29.9956 5.84305 34.9417C9.87639 38.9457 10.5861 39.6052 11.0828 39.7819C11.828 40.0527 12.3957 40.0409 13.0936 39.7348C13.7678 39.4521 14.0162 39.2519 14.3828 38.6631C14.6549 38.2391 14.6667 38.1214 14.6667 36.2136V34.2116H14.9624C15.2226 34.2116 16.5237 34.6473 17.0323 34.9064C18.7828 35.8014 19.8355 36.614 20.7699 37.8034C21.2667 38.4276 22.3549 40.5238 22.3549 40.8535C22.3549 40.9948 22.2366 41.5837 22.0947 42.1725C21.8581 43.1617 21.8345 43.5385 21.799 49.5092L21.7517 55.7978L22.1775 56.4338C22.5205 56.9519 22.7334 57.1403 23.2538 57.3641C23.8807 57.635 23.9753 57.6467 27.0742 57.6467C29.9603 57.6467 30.2914 57.6232 30.7646 57.423C31.3678 57.1521 32.0775 56.4455 32.2667 55.9391C32.3495 55.7036 32.4086 53.6427 32.4441 49.992L32.5033 44.3982L32.8699 43.0439C33.8871 39.2755 35.5312 36.9908 38.5355 35.1773C39.6119 34.5296 39.6237 34.5413 39.6237 36.3667C39.6237 38.0272 39.7301 38.4393 40.3807 39.1459C40.7592 39.5699 41.7291 39.9821 42.3441 39.9821C43.456 39.9821 43.7398 39.7465 48.542 34.9653C51.8893 31.6443 53.0839 30.3725 53.2732 29.9721C53.557 29.3244 53.5689 28.3352 53.2968 27.6992C52.9893 27.0162 43.9527 18.0425 43.3613 17.8423C43.1129 17.7599 42.5689 17.7246 42.1076 17.7481C41.457 17.7835 41.2205 17.8541 40.8065 18.1367C40.5226 18.3369 40.2742 18.5843 40.2388 18.6902C40.2151 18.808 40.156 18.9022 40.1086 18.9022C40.0613 18.9022 39.9312 19.0906 39.8248 19.3144C39.6592 19.6559 39.6237 20.1034 39.6237 21.6697C39.6237 23.4479 39.6 23.6128 39.4226 23.6128C39.1151 23.6128 37.199 24.1781 36.3947 24.5078C36.0162 24.6609 35.6613 24.7904 35.6022 24.7904C35.4839 24.7904 33.9463 25.5206 33.0947 25.9916L32.5269 26.2978V20.3625V14.4272H34.2775C35.3183 14.4272 36.2054 14.3683 36.5011 14.2741C38.0861 13.7912 38.8549 11.8835 38.0388 10.4821C37.6366 9.79902 29.2742 1.42597 28.5291 0.95491C28.1151 0.695827 27.9022 0.648724 27.1689 0.648724C26.4 0.648724 26.2345 0.695831 25.7732 1.00202ZM34.9871 11.5655C34.8334 11.589 33.6033 11.6126 32.2312 11.6244L29.7474 11.6597L29.7119 19.9032L29.6882 28.1585L29.2033 28.5589C28.9312 28.7827 28.5527 29.1124 28.3635 29.289C28.1742 29.4775 27.9968 29.6188 27.9613 29.6188C27.9258 29.6188 27.5119 29.289 27.0388 28.8769C25.9861 27.9465 24.957 27.1457 24.8269 27.1457C24.7678 27.1457 24.7205 23.7777 24.7205 19.5617C24.7205 15.3928 24.685 11.8952 24.6495 11.7892C24.5904 11.6244 24.2237 11.6008 21.7753 11.6008H18.9839L23.0646 7.53794L27.1452 3.47507L31.2022 7.50262C34.5022 10.8 35.2 11.5419 34.9871 11.5655ZM12.8689 25.8974C14.2882 26.0152 16.9968 26.5569 18.156 26.9691C21.4914 28.1585 23.3721 29.2655 25.4065 31.2557L26.2699 32.1036L25.785 32.7749C25.5248 33.1517 25.3119 33.5168 25.3119 33.5992C25.3119 33.6817 25.2646 33.7405 25.2172 33.7405C25.1699 33.7405 24.7796 34.4471 24.3656 35.3186L23.6086 36.8849L23.1355 36.2254C22.5441 35.401 21.3732 34.2352 20.6162 33.7288C20.3086 33.5168 20.0248 33.3048 19.9893 33.2695C19.8474 33.0928 17.5764 32.0683 16.6183 31.7503C15.7904 31.4677 12.5377 30.7964 12.0409 30.7964C11.9936 30.7964 11.9345 32.1743 11.9226 33.8583L11.8871 36.9202L7.83015 32.8809L3.76133 28.8298L7.83015 24.7787L11.8871 20.7276L11.9226 23.2831L11.9463 25.8268L12.8689 25.8974ZM46.5785 32.8809L42.5215 36.9084L42.4861 33.9525L42.4624 31.0084L42.0721 31.0791C41.871 31.1262 41.4097 31.2086 41.0549 31.2675C40.7 31.3264 40.3689 31.4324 40.3334 31.503C40.2861 31.5737 40.1205 31.6443 39.9667 31.6679C38.4172 31.8328 35.4603 33.5168 34.0054 35.0595C33.2721 35.8367 32.5269 36.7671 32.5269 36.8966C32.5269 36.9555 32.4441 37.0733 32.3377 37.1557C32.1721 37.3088 32.0656 37.4855 31.4861 38.6278C30.8119 39.9703 30.4452 41.0066 30.0076 42.8673L29.6527 44.3982L29.6054 49.6034L29.5581 54.8204H27.0742H24.6022V49.8978C24.6022 47.201 24.6613 44.5042 24.7086 43.9154C25.0398 40.5356 26.8258 35.9074 28.7065 33.5639C28.8603 33.3637 29.085 33.0928 29.1914 32.9397C29.5345 32.4805 31.6871 30.3371 32.0302 30.1252C32.2076 30.0074 32.4205 29.819 32.5033 29.713C32.5861 29.5952 32.7162 29.501 32.7753 29.501C32.8463 29.501 33.2248 29.2773 33.6269 28.9946C35.5194 27.6874 39.3162 26.2978 41.7882 26.0152L42.4624 25.9328V23.3066V20.6805L46.5431 24.7669L50.6237 28.8415L46.5785 32.8809Z" fill="#502B7D"/>
</svg>
