<svg width="65" height="65" viewBox="0 0 65 65" fill="none" xmlns="http://www.w3.org/2000/svg">
<path d="M18.7789 62.0857V59.4029C18.7789 55.8454 20.1921 52.4337 22.7076 49.9181C25.2232 47.4026 28.635 45.9894 32.1925 45.9894M32.1925 45.9894C35.75 45.9894 39.1618 47.4026 41.6773 49.9181C44.1928 52.4337 45.606 55.8454 45.606 59.4029V62.0857M32.1925 45.9894C34.327 45.9894 36.374 45.1415 37.8834 43.6321C39.3927 42.1228 40.2406 40.0757 40.2406 37.9412C40.2406 35.8067 39.3927 33.7597 37.8834 32.2503C36.374 30.741 34.327 29.8931 32.1925 29.8931C30.058 29.8931 28.0109 30.741 26.5016 32.2503C24.9922 33.7597 24.1443 35.8067 24.1443 37.9412C24.1443 40.0757 24.9922 42.1228 26.5016 43.6321C28.0109 45.1415 30.058 45.9894 32.1925 45.9894ZM2.68262 62.0857V59.4029C2.68262 57.2684 3.53054 55.2214 5.03986 53.712C6.54918 52.2027 8.59626 51.3548 10.7308 51.3548M10.7308 51.3548C12.1538 51.3548 13.5185 50.7895 14.5247 49.7833C15.5309 48.7771 16.0962 47.4124 16.0962 45.9894C16.0962 44.5664 15.5309 43.2017 14.5247 42.1954C13.5185 41.1892 12.1538 40.624 10.7308 40.624C9.30776 40.624 7.94304 41.1892 6.93683 42.1954C5.93061 43.2017 5.36533 44.5664 5.36533 45.9894C5.36533 47.4124 5.93061 48.7771 6.93683 49.7833C7.94304 50.7895 9.30776 51.3548 10.7308 51.3548ZM61.7023 62.0857V59.4029C61.7023 57.2684 60.8544 55.2214 59.3451 53.712C57.8357 52.2027 55.7887 51.3548 53.6542 51.3548M53.6542 51.3548C55.0772 51.3548 56.4419 50.7895 57.4481 49.7833C58.4543 48.7771 59.0196 47.4124 59.0196 45.9894C59.0196 44.5664 58.4543 43.2017 57.4481 42.1954C56.4419 41.1892 55.0772 40.624 53.6542 40.624C52.2312 40.624 50.8665 41.1892 49.8602 42.1954C48.854 43.2017 48.2887 44.5664 48.2887 45.9894C48.2887 47.4124 48.854 48.7771 49.8602 49.7833C50.8665 50.7895 52.2312 51.3548 53.6542 51.3548Z" stroke="#6C4099" stroke-width="3" stroke-linecap="round" stroke-linejoin="round"/>
</svg>
