<svg width="53" height="54" viewBox="0 0 53 54" fill="none" xmlns="http://www.w3.org/2000/svg">
<path d="M43.4975 10.2325C41.1647 7.86203 38.3895 5.97868 35.3311 4.69068C32.2727 3.40267 28.9916 2.7354 25.6762 2.72719C22.3608 2.71898 19.0764 3.36999 16.0118 4.64283C12.9472 5.91567 10.1627 7.78525 7.81833 10.1442C5.47397 12.5031 3.61592 15.3048 2.35093 18.3885C1.08594 21.4721 0.438938 24.7769 0.447098 28.1129C0.455258 31.4488 1.11842 34.7503 2.39848 37.8277C3.67854 40.905 5.55027 43.6975 7.90614 46.0448C10.2389 48.4153 13.0142 50.2987 16.0726 51.5867C19.1309 52.8747 22.4121 53.5419 25.7275 53.5501C29.0429 53.5584 32.3273 52.9073 35.3919 51.6345C38.4565 50.3617 41.241 48.4921 43.5854 46.1332C45.9297 43.7743 47.7878 40.9725 49.0528 37.8889C50.3177 34.8052 50.9647 31.5005 50.9566 28.1645C50.9484 24.8285 50.2853 21.527 49.0052 18.4497C47.7251 15.3723 45.8534 12.5798 43.4975 10.2325ZM4.12994 28.1387C4.12909 26.2176 4.38224 24.305 4.88271 22.4511C5.70738 24.2373 6.90507 25.7804 7.71964 27.613C8.77239 29.969 11.5992 29.3155 12.8475 31.3798C13.9553 33.2124 12.7722 35.5299 13.6014 37.4473C14.2036 38.8389 15.6237 39.143 16.6034 40.1605C17.6045 41.187 17.5832 42.5934 17.736 43.9319C17.9083 45.5046 18.1879 47.0635 18.573 48.5975C18.573 48.6088 18.573 48.6212 18.582 48.6325C10.1746 45.6616 4.12994 37.5976 4.12994 28.1387ZM25.7018 49.8445C24.4971 49.8441 23.2945 49.7428 22.1065 49.5415C22.1189 49.2351 22.1245 48.9491 22.1548 48.7501C22.4279 46.9526 23.3222 45.1947 24.5289 43.8494C25.7209 42.5221 27.3546 41.6245 28.3613 40.1187C29.3477 38.649 29.6432 36.6706 29.2365 34.9534C28.6376 32.4165 25.212 31.5698 23.3649 30.1939C22.3031 29.4026 21.3582 28.1794 19.9639 28.0799C19.3213 28.0347 18.7831 28.1737 18.1461 28.0087C17.5618 27.856 17.1034 27.5395 16.481 27.622C15.3181 27.7758 14.5844 29.0261 13.3351 28.8565C12.1497 28.6971 10.9285 27.301 10.6588 26.1648C10.3128 24.7042 11.461 24.2305 12.6913 24.1005C13.2047 24.0462 13.7811 23.9874 14.2743 24.1774C14.9238 24.4193 15.2305 25.0592 15.8136 25.3825C16.9068 25.9862 17.1281 25.0219 16.9607 24.0451C16.7102 22.5822 16.4181 21.9864 17.7146 20.9792C18.6134 20.285 19.3819 19.7831 19.2381 18.5361C19.1527 17.8035 18.7539 17.4723 19.1258 16.7431C19.4078 16.1881 20.1819 15.6872 20.6864 15.356C21.9886 14.5013 26.2647 14.5646 24.5176 12.1725C24.0042 11.4704 23.057 10.2156 22.1582 10.0437C21.0347 9.83007 20.5358 11.0917 19.7527 11.6479C18.9438 12.2234 17.3686 12.8768 16.5585 11.9871C15.4687 10.7899 17.2809 10.3976 17.682 9.56101C17.8674 9.17098 17.682 8.62947 17.3697 8.11961C17.7749 7.94777 18.1869 7.78837 18.6056 7.6414C18.868 7.83641 19.1793 7.95387 19.5044 7.98055C20.2561 8.03029 20.965 7.62105 21.6212 8.13656C22.3492 8.70182 22.8739 9.4163 23.8401 9.59266C24.7749 9.76337 25.7648 9.21507 25.9962 8.25187C26.1366 7.66627 25.9962 7.04788 25.8614 6.44306C30.0634 6.46739 34.1657 7.73363 37.6585 10.0844C37.4338 9.99851 37.1653 10.0087 36.8338 10.1636C36.1519 10.4824 35.1856 11.2941 35.1058 12.099C35.0148 13.0125 36.3541 13.1413 36.99 13.1413C37.945 13.1413 38.9124 12.7117 38.6045 11.6016C38.4708 11.12 38.2888 10.6192 37.9956 10.3162C38.7005 10.8083 39.3758 11.3421 40.0179 11.9147C40.0078 11.9249 39.9977 11.9339 39.9876 11.9452C39.3405 12.6236 38.5888 13.1605 38.1461 13.9858C37.8338 14.5669 37.4821 14.8427 36.8496 14.9931C36.5013 15.0756 36.1035 15.1062 35.8114 15.3413C34.998 15.9857 35.4609 17.5345 36.2316 17.9991C37.2057 18.5859 38.6506 18.31 39.3854 17.4723C39.9595 16.8166 40.2977 15.6782 41.3302 15.6793C41.7848 15.6784 42.2215 15.8575 42.5459 16.1779C42.9728 16.6233 42.8886 17.0393 42.9796 17.5955C43.1403 18.5836 44.0065 18.0477 44.5334 17.5492C44.9176 18.237 45.2641 18.9454 45.5716 19.6712C44.9918 20.5111 44.5312 21.4268 43.1369 20.4478C42.3021 19.8611 41.7886 19.0098 40.7404 18.7453C39.8247 18.5192 38.8865 18.7543 37.9821 18.9114C36.9541 19.0912 35.735 19.1703 34.9553 19.9538C34.2014 20.709 33.8025 21.7196 33.0003 22.4782C31.4487 23.9479 30.7937 25.5521 31.7982 27.6299C32.7644 29.6275 34.7856 30.7117 36.9664 30.5693C39.109 30.4257 41.3347 29.1753 41.2729 32.308C41.2505 33.417 41.4808 34.1846 41.819 35.2145C42.1324 36.1642 42.1111 37.0844 42.183 38.0645C42.2514 39.2123 42.4297 40.3507 42.7156 41.464C40.7017 44.0729 38.1219 46.1843 35.1732 47.6367C32.2245 49.0892 28.9849 49.8443 25.7018 49.8445Z" fill="#502B7D"/>
</svg>
