<svg xmlns="http://www.w3.org/2000/svg" xmlns:xlink="http://www.w3.org/1999/xlink" width="500" zoomAndPan="magnify" viewBox="0 0 375 374.999991" height="500" preserveAspectRatio="xMidYMid meet" version="1.2"><defs><clipPath id="48ebd47b20"><path d="M 34.351562 3.339844 L 341 3.339844 L 341 310 L 34.351562 310 Z M 34.351562 3.339844 "/></clipPath></defs><g id="5c5a8851fa"><path style=" stroke:none;fill-rule:nonzero;fill:#502b7d;fill-opacity:1;" d="M 211.78125 196.796875 C 206.980469 196.796875 203.085938 190.113281 203.085938 181.871094 C 203.085938 173.628906 206.980469 166.949219 211.78125 166.949219 C 216.582031 166.949219 220.472656 173.628906 220.472656 181.871094 C 220.472656 190.113281 216.582031 196.796875 211.78125 196.796875 Z M 163.136719 196.796875 C 158.339844 196.796875 154.445312 190.113281 154.445312 181.871094 C 154.445312 173.628906 158.339844 166.949219 163.136719 166.949219 C 167.941406 166.949219 171.832031 173.628906 171.832031 181.871094 C 171.832031 190.113281 167.941406 196.796875 163.136719 196.796875 Z M 231.632812 163.746094 L 143.289062 163.746094 C 133.277344 163.746094 125.160156 171.859375 125.160156 181.871094 C 125.160156 191.882812 133.277344 200 143.289062 200 L 231.632812 200 C 241.644531 200 249.761719 191.882812 249.761719 181.871094 C 249.761719 171.859375 241.644531 163.746094 231.632812 163.746094 "/><g clip-rule="nonzero" clip-path="url(#48ebd47b20)"><path style=" stroke:none;fill-rule:nonzero;fill:#502b7d;fill-opacity:1;" d="M 275.136719 220.285156 C 273.753906 223.804688 272.164062 227.21875 270.378906 230.511719 C 254.472656 259.992188 223.304688 280.023438 187.460938 280.023438 C 147.601562 280.023438 113.53125 255.261719 99.785156 220.285156 C 84.144531 216.632812 72.488281 202.605469 72.488281 185.851562 C 72.488281 169.09375 84.144531 155.074219 99.785156 151.417969 C 107.601562 131.519531 122 114.933594 140.296875 104.324219 L 140.296875 50.460938 C 137.480469 48.828125 135.582031 45.792969 135.582031 42.300781 C 135.582031 37.089844 139.804688 32.871094 145.015625 32.871094 C 150.222656 32.871094 154.445312 37.089844 154.445312 42.300781 C 154.445312 45.792969 152.546875 48.828125 149.730469 50.460938 L 149.730469 99.546875 C 151.292969 98.863281 152.882812 98.226562 154.488281 97.625 C 164.75 93.785156 175.859375 91.679688 187.460938 91.679688 C 200.878906 91.679688 213.636719 94.492188 225.191406 99.546875 L 225.191406 50.460938 C 222.371094 48.828125 220.472656 45.792969 220.472656 42.300781 C 220.472656 37.089844 224.695312 32.871094 229.90625 32.871094 C 235.117188 32.871094 239.339844 37.089844 239.339844 42.300781 C 239.339844 45.792969 237.4375 48.828125 234.621094 50.460938 L 234.621094 104.324219 C 252.917969 114.933594 267.316406 131.519531 275.136719 151.417969 C 290.777344 155.074219 302.433594 169.09375 302.433594 185.851562 C 302.433594 202.605469 290.777344 216.632812 275.136719 220.285156 Z M 187.460938 3.304688 C 102.878906 3.304688 34.316406 71.867188 34.316406 156.445312 C 34.316406 241.027344 102.878906 309.589844 187.460938 309.589844 C 272.039062 309.589844 340.601562 241.027344 340.601562 156.445312 C 340.601562 71.867188 272.039062 3.304688 187.460938 3.304688 "/></g><g style="fill:#502b7d;fill-opacity:1;"><g transform="translate(69.04384, 352.185827)"><path style="stroke:none" d="M 1.890625 -30.125 L 7.1875 -30.125 C 7.625 -30.125 8.015625 -30.125 8.359375 -30.125 C 8.710938 -30.125 9.007812 -30.082031 9.25 -30 C 10.34375 -29.957031 11.113281 -29.734375 11.5625 -29.328125 C 12.09375 -28.960938 12.359375 -28.234375 12.359375 -27.140625 C 12.359375 -26.691406 12.296875 -26.003906 12.171875 -25.078125 C 12.171875 -24.867188 12.128906 -24.46875 12.046875 -23.875 C 11.960938 -23.289062 11.84375 -22.535156 11.6875 -21.609375 L 10.15625 -10.71875 C 10.125 -10.226562 10.066406 -9.859375 9.984375 -9.609375 C 9.984375 -9.492188 9.992188 -9.382812 10.015625 -9.28125 C 10.035156 -9.175781 10.046875 -9.082031 10.046875 -9 C 10.117188 -8.800781 10.257812 -8.679688 10.46875 -8.640625 C 10.632812 -8.597656 11.140625 -8.578125 11.984375 -8.578125 L 23.25 -8.578125 L 25.078125 -21.609375 L 26.296875 -30.125 C 27.585938 -30.125 28.660156 -30.125 29.515625 -30.125 C 30.367188 -30.125 30.976562 -30.082031 31.34375 -30 C 32.675781 -29.882812 33.53125 -29.476562 33.90625 -28.78125 C 34.144531 -28.375 34.265625 -27.707031 34.265625 -26.78125 C 34.265625 -26.613281 34.265625 -26.4375 34.265625 -26.25 C 34.265625 -26.070312 34.242188 -25.882812 34.203125 -25.6875 C 34.203125 -25.320312 34.160156 -24.800781 34.078125 -24.125 C 33.992188 -23.457031 33.875 -22.617188 33.71875 -21.609375 L 31.890625 -8.578125 C 31.566406 -6.109375 31.300781 -4.488281 31.09375 -3.71875 C 30.851562 -2.582031 30.507812 -1.789062 30.0625 -1.34375 C 29.613281 -0.8125 28.820312 -0.425781 27.6875 -0.1875 C 26.914062 -0.0625 25.476562 0 23.375 0 L 7.296875 0 C 6.203125 0 5.289062 -0.03125 4.5625 -0.09375 C 3.832031 -0.15625 3.242188 -0.207031 2.796875 -0.25 C 1.867188 -0.488281 1.238281 -0.910156 0.90625 -1.515625 C 0.707031 -2.003906 0.609375 -2.570312 0.609375 -3.21875 C 0.609375 -3.425781 0.617188 -3.617188 0.640625 -3.796875 C 0.660156 -3.984375 0.671875 -4.160156 0.671875 -4.328125 C 0.710938 -5.054688 0.894531 -6.472656 1.21875 -8.578125 C 1.34375 -9.390625 1.484375 -10.363281 1.640625 -11.5 C 1.804688 -12.632812 1.988281 -13.929688 2.1875 -15.390625 C 2.4375 -16.898438 2.628906 -18.171875 2.765625 -19.203125 C 2.910156 -20.234375 3.003906 -21.035156 3.046875 -21.609375 L 3.71875 -26.46875 C 3.75 -26.675781 3.773438 -26.859375 3.796875 -27.015625 C 3.816406 -27.179688 3.828125 -27.285156 3.828125 -27.328125 L 3.828125 -27.625 C 3.828125 -27.789062 3.816406 -27.921875 3.796875 -28.015625 C 3.773438 -28.117188 3.75 -28.210938 3.71875 -28.296875 C 3.675781 -28.546875 3.492188 -28.789062 3.171875 -29.03125 C 3.003906 -29.269531 2.578125 -29.632812 1.890625 -30.125 Z M 1.890625 -30.125 "/></g></g><g style="fill:#502b7d;fill-opacity:1;"><g transform="translate(103.84963, 352.185827)"><path style="stroke:none" d="M 8.34375 3.828125 C 7.976562 6.429688 7.671875 8.15625 7.421875 9 C 7.179688 10.0625 6.773438 10.851562 6.203125 11.375 C 5.722656 11.863281 4.875 12.171875 3.65625 12.296875 C 2.882812 12.410156 1.160156 12.46875 -1.515625 12.46875 L 2.921875 -19.296875 L 3.21875 -21.546875 C 3.425781 -22.835938 3.585938 -23.910156 3.703125 -24.765625 C 3.828125 -25.617188 3.929688 -26.25 4.015625 -26.65625 C 4.378906 -27.957031 4.867188 -28.8125 5.484375 -29.21875 C 5.960938 -29.582031 6.648438 -29.820312 7.546875 -29.9375 C 8.484375 -30.0625 10.289062 -30.125 12.96875 -30.125 L 26.59375 -30.125 C 28.007812 -30.125 29.175781 -30.101562 30.09375 -30.0625 C 31.007812 -30.019531 31.671875 -29.957031 32.078125 -29.875 C 32.921875 -29.757812 33.53125 -29.5 33.90625 -29.09375 C 34.300781 -28.644531 34.5 -27.894531 34.5 -26.84375 C 34.5 -26.675781 34.5 -26.476562 34.5 -26.25 C 34.5 -26.03125 34.484375 -25.78125 34.453125 -25.5 C 34.367188 -24.769531 34.1875 -23.453125 33.90625 -21.546875 L 32.078125 -8.515625 C 31.910156 -7.265625 31.765625 -6.234375 31.640625 -5.421875 C 31.523438 -4.609375 31.40625 -4 31.28125 -3.59375 C 31.039062 -2.539062 30.65625 -1.75 30.125 -1.21875 C 29.59375 -0.6875 28.84375 -0.34375 27.875 -0.1875 C 27.019531 -0.0625 25.414062 0 23.0625 0 L 8.890625 0 Z M 21.359375 -8.515625 C 21.679688 -8.515625 21.941406 -8.523438 22.140625 -8.546875 C 22.347656 -8.566406 22.515625 -8.578125 22.640625 -8.578125 C 22.960938 -8.703125 23.164062 -8.804688 23.25 -8.890625 C 23.40625 -9.085938 23.503906 -9.3125 23.546875 -9.5625 C 23.628906 -9.84375 23.691406 -10.242188 23.734375 -10.765625 L 25.25 -21.546875 L 14.359375 -21.546875 C 13.953125 -21.546875 13.617188 -21.546875 13.359375 -21.546875 C 13.097656 -21.546875 12.90625 -21.523438 12.78125 -21.484375 C 12.570312 -21.484375 12.390625 -21.398438 12.234375 -21.234375 C 12.109375 -21.117188 11.988281 -20.878906 11.875 -20.515625 C 11.832031 -20.429688 11.789062 -20.285156 11.75 -20.078125 C 11.707031 -19.878906 11.644531 -19.617188 11.5625 -19.296875 L 10.109375 -8.578125 L 10.109375 -8.515625 Z M 21.359375 -8.515625 "/></g></g><g style="fill:#502b7d;fill-opacity:1;"><g transform="translate(138.898823, 352.185827)"><path style="stroke:none" d="M 15.21875 -42.609375 L 12.59375 -24.046875 L 10.46875 -8.515625 C 10.300781 -7.378906 10.15625 -6.4375 10.03125 -5.6875 C 9.914062 -4.9375 9.796875 -4.335938 9.671875 -3.890625 C 9.429688 -2.753906 9.066406 -1.90625 8.578125 -1.34375 C 7.929688 -0.6875 6.898438 -0.28125 5.484375 -0.125 C 5.078125 -0.0820312 4.46875 -0.0507812 3.65625 -0.03125 C 2.84375 -0.0078125 1.828125 0 0.609375 0 L 2.5 -13.328125 L 5.359375 -34.078125 C 5.765625 -36.671875 6.066406 -38.394531 6.265625 -39.25 C 6.628906 -40.550781 7.175781 -41.40625 7.90625 -41.8125 C 8.195312 -42.007812 8.535156 -42.160156 8.921875 -42.265625 C 9.304688 -42.367188 9.738281 -42.441406 10.21875 -42.484375 C 10.664062 -42.566406 11.304688 -42.609375 12.140625 -42.609375 C 12.972656 -42.609375 14 -42.609375 15.21875 -42.609375 Z M 15.21875 -42.609375 "/></g></g><g style="fill:#502b7d;fill-opacity:1;"><g transform="translate(152.894163, 352.185827)"><path style="stroke:none" d="M 15.21875 -42.609375 L 13.8125 -32.4375 L 5.171875 -32.4375 L 5.359375 -34.078125 C 5.554688 -35.253906 5.71875 -36.226562 5.84375 -37 C 5.96875 -37.769531 6.066406 -38.335938 6.140625 -38.703125 C 6.429688 -40.003906 6.835938 -40.914062 7.359375 -41.4375 C 7.890625 -41.96875 8.640625 -42.296875 9.609375 -42.421875 C 10.460938 -42.546875 12.332031 -42.609375 15.21875 -42.609375 Z M 4.875 -30.1875 L 13.515625 -30.1875 L 11.75 -17.890625 L 10.46875 -8.515625 C 10.144531 -6.410156 9.898438 -4.972656 9.734375 -4.203125 C 9.578125 -3.179688 9.296875 -2.367188 8.890625 -1.765625 C 8.398438 -1.035156 7.585938 -0.546875 6.453125 -0.296875 C 6.046875 -0.222656 5.351562 -0.15625 4.375 -0.09375 C 3.40625 -0.03125 2.148438 0 0.609375 0 L 2.796875 -15.453125 Z M 4.875 -30.1875 "/></g></g><g style="fill:#502b7d;fill-opacity:1;"><g transform="translate(166.889503, 352.185827)"><path style="stroke:none" d="M 3.65625 -21.546875 C 3.851562 -22.960938 4.019531 -24.109375 4.15625 -24.984375 C 4.300781 -25.859375 4.414062 -26.5 4.5 -26.90625 C 4.863281 -28.082031 5.351562 -28.867188 5.96875 -29.265625 C 6.445312 -29.640625 7.175781 -29.882812 8.15625 -30 C 8.519531 -30.082031 8.992188 -30.125 9.578125 -30.125 C 10.171875 -30.125 10.851562 -30.125 11.625 -30.125 L 28.71875 -30.125 C 29.53125 -30.125 30.226562 -30.125 30.8125 -30.125 C 31.40625 -30.125 31.882812 -30.082031 32.25 -30 C 33.101562 -29.882812 33.691406 -29.660156 34.015625 -29.328125 C 34.503906 -28.960938 34.789062 -28.253906 34.875 -27.203125 L 34.875 -26.78125 C 34.875 -25.96875 34.691406 -24.222656 34.328125 -21.546875 L 34.015625 -19.359375 L 32.796875 -10.765625 L 32.5 -8.515625 C 32.332031 -7.296875 32.1875 -6.28125 32.0625 -5.46875 C 31.945312 -4.664062 31.828125 -4.0625 31.703125 -3.65625 C 31.585938 -3.164062 31.445312 -2.726562 31.28125 -2.34375 C 31.113281 -1.957031 30.910156 -1.644531 30.671875 -1.40625 C 30.179688 -0.875 29.429688 -0.488281 28.421875 -0.25 C 28.015625 -0.207031 27.320312 -0.15625 26.34375 -0.09375 C 25.375 -0.03125 24.140625 0 22.640625 0 L 23.859375 -8.515625 L 24.15625 -10.765625 L 25.375 -19.359375 L 25.6875 -21.546875 L 14.546875 -21.546875 C 14.378906 -21.585938 14.222656 -21.609375 14.078125 -21.609375 C 13.941406 -21.609375 13.8125 -21.609375 13.6875 -21.609375 C 13.445312 -21.609375 13.285156 -21.585938 13.203125 -21.546875 C 13.003906 -21.546875 12.800781 -21.484375 12.59375 -21.359375 C 12.4375 -21.203125 12.296875 -20.957031 12.171875 -20.625 C 12.171875 -20.46875 12.109375 -20.046875 11.984375 -19.359375 L 10.765625 -10.765625 L 10.46875 -8.515625 C 10.300781 -7.179688 10.125 -6.078125 9.9375 -5.203125 C 9.757812 -4.328125 9.613281 -3.664062 9.5 -3.21875 C 9.25 -2.25 8.800781 -1.5 8.15625 -0.96875 C 7.625 -0.601562 6.8125 -0.320312 5.71875 -0.125 C 5.3125 -0.0820312 4.679688 -0.0507812 3.828125 -0.03125 C 2.984375 -0.0078125 1.910156 0 0.609375 0 L 1.828125 -8.515625 L 2.125 -10.765625 L 3.34375 -19.359375 Z M 3.65625 -21.546875 "/></g></g><g style="fill:#502b7d;fill-opacity:1;"><g transform="translate(202.303787, 352.185827)"><path style="stroke:none" d="M 5.96875 -42.609375 C 9.332031 -42.609375 11.398438 -42.421875 12.171875 -42.046875 C 13.023438 -41.679688 13.53125 -40.992188 13.6875 -39.984375 C 13.726562 -39.816406 13.75 -39.613281 13.75 -39.375 C 13.75 -39.132812 13.75 -38.851562 13.75 -38.53125 L 13.75 -37.25 C 13.664062 -36.070312 13.363281 -33.71875 12.84375 -30.1875 L 27.078125 -30.1875 C 28.378906 -30.1875 29.4375 -30.164062 30.25 -30.125 C 31.0625 -30.082031 31.671875 -30 32.078125 -29.875 C 33.085938 -29.675781 33.734375 -29.234375 34.015625 -28.546875 C 34.179688 -28.222656 34.265625 -27.65625 34.265625 -26.84375 L 34.265625 -26.40625 C 34.265625 -25.632812 34.082031 -24.035156 33.71875 -21.609375 L 31.890625 -8.578125 C 31.722656 -7.359375 31.566406 -6.34375 31.421875 -5.53125 C 31.285156 -4.726562 31.15625 -4.101562 31.03125 -3.65625 C 30.789062 -2.476562 30.390625 -1.644531 29.828125 -1.15625 C 29.378906 -0.707031 28.566406 -0.382812 27.390625 -0.1875 C 26.535156 -0.0625 24.75 0 22.03125 0 L 8.640625 0 C 7.179688 0 5.972656 -0.03125 5.015625 -0.09375 C 4.066406 -0.15625 3.367188 -0.207031 2.921875 -0.25 C 2.023438 -0.445312 1.394531 -0.789062 1.03125 -1.28125 C 0.914062 -1.519531 0.816406 -1.8125 0.734375 -2.15625 C 0.648438 -2.5 0.609375 -2.875 0.609375 -3.28125 C 0.609375 -3.488281 0.617188 -3.710938 0.640625 -3.953125 C 0.660156 -4.203125 0.671875 -4.445312 0.671875 -4.6875 C 0.753906 -5.050781 0.820312 -5.554688 0.875 -6.203125 C 0.9375 -6.859375 1.03125 -7.648438 1.15625 -8.578125 L 2.984375 -21.609375 L 4.203125 -30.1875 Z M 11.625 -21.609375 L 10.15625 -10.828125 C 10.039062 -10.097656 9.984375 -9.632812 9.984375 -9.4375 C 9.984375 -9.226562 10.023438 -9.046875 10.109375 -8.890625 C 10.179688 -8.804688 10.363281 -8.722656 10.65625 -8.640625 C 10.769531 -8.640625 10.9375 -8.628906 11.15625 -8.609375 C 11.382812 -8.585938 11.660156 -8.578125 11.984375 -8.578125 L 23.25 -8.578125 L 24.765625 -19.421875 C 24.847656 -19.785156 24.890625 -20.078125 24.890625 -20.296875 C 24.890625 -20.515625 24.890625 -20.664062 24.890625 -20.75 C 24.890625 -21 24.867188 -21.140625 24.828125 -21.171875 C 24.785156 -21.421875 24.625 -21.546875 24.34375 -21.546875 C 24.21875 -21.585938 23.832031 -21.609375 23.1875 -21.609375 Z M 11.625 -21.609375 "/></g></g><g style="fill:#502b7d;fill-opacity:1;"><g transform="translate(237.109578, 352.185827)"><path style="stroke:none" d="M 2.984375 -21.671875 C 3.222656 -23.492188 3.40625 -24.6875 3.53125 -25.25 C 3.894531 -27.125 4.378906 -28.363281 4.984375 -28.96875 C 5.554688 -29.570312 6.429688 -29.9375 7.609375 -30.0625 C 8.054688 -30.144531 8.6875 -30.1875 9.5 -30.1875 C 10.3125 -30.1875 11.320312 -30.1875 12.53125 -30.1875 L 26.53125 -30.1875 C 28.03125 -30.1875 29.253906 -30.164062 30.203125 -30.125 C 31.160156 -30.082031 31.84375 -30 32.25 -29.875 C 32.976562 -29.757812 33.507812 -29.4375 33.84375 -28.90625 C 34.125 -28.5 34.265625 -27.832031 34.265625 -26.90625 L 34.265625 -26.296875 C 34.265625 -25.523438 34.082031 -23.984375 33.71875 -21.671875 L 31.890625 -8.640625 C 31.609375 -6.492188 31.363281 -5.015625 31.15625 -4.203125 C 30.914062 -3.066406 30.613281 -2.234375 30.25 -1.703125 C 29.800781 -1.015625 28.988281 -0.546875 27.8125 -0.296875 C 27.40625 -0.265625 26.753906 -0.21875 25.859375 -0.15625 C 24.972656 -0.09375 23.835938 -0.0625 22.453125 -0.0625 L 8.15625 -0.0625 C 6.851562 -0.0625 5.773438 -0.09375 4.921875 -0.15625 C 4.078125 -0.21875 3.429688 -0.265625 2.984375 -0.296875 C 2.085938 -0.460938 1.4375 -0.8125 1.03125 -1.34375 C 0.914062 -1.582031 0.816406 -1.875 0.734375 -2.21875 C 0.648438 -2.5625 0.609375 -2.9375 0.609375 -3.34375 L 0.609375 -4.078125 C 0.691406 -4.890625 0.875 -6.410156 1.15625 -8.640625 C 1.394531 -9.984375 2.003906 -14.328125 2.984375 -21.671875 Z M 14.609375 -21.671875 C 14.117188 -21.671875 13.710938 -21.671875 13.390625 -21.671875 C 13.066406 -21.671875 12.820312 -21.648438 12.65625 -21.609375 C 12.25 -21.523438 11.96875 -21.398438 11.8125 -21.234375 C 11.6875 -21.117188 11.5625 -20.773438 11.4375 -20.203125 C 11.4375 -20.160156 11.425781 -20.066406 11.40625 -19.921875 C 11.382812 -19.785156 11.351562 -19.617188 11.3125 -19.421875 L 9.796875 -8.640625 L 22.453125 -8.640625 C 22.742188 -8.722656 22.925781 -8.804688 23 -8.890625 C 23.164062 -9.046875 23.25 -9.226562 23.25 -9.4375 C 23.332031 -9.550781 23.390625 -9.71875 23.421875 -9.9375 C 23.460938 -10.164062 23.503906 -10.460938 23.546875 -10.828125 L 25.078125 -21.671875 Z M 14.609375 -21.671875 "/></g></g><g style="fill:#502b7d;fill-opacity:1;"><g transform="translate(271.915368, 352.185827)"><path style="stroke:none" d="M 14 -42.609375 C 16.351562 -42.609375 17.972656 -42.546875 18.859375 -42.421875 C 20.523438 -42.296875 21.539062 -41.804688 21.90625 -40.953125 C 22.070312 -40.628906 22.15625 -40.101562 22.15625 -39.375 C 22.15625 -39.207031 22.15625 -39.015625 22.15625 -38.796875 C 22.15625 -38.578125 22.113281 -38.320312 22.03125 -38.03125 C 22.03125 -37.507812 21.847656 -36.171875 21.484375 -34.015625 L 20.9375 -30.125 L 34.328125 -30.125 C 33.960938 -27.40625 33.65625 -25.597656 33.40625 -24.703125 C 33.125 -23.734375 32.703125 -23.003906 32.140625 -22.515625 C 31.566406 -22.109375 30.671875 -21.828125 29.453125 -21.671875 C 29.046875 -21.628906 28.4375 -21.597656 27.625 -21.578125 C 26.8125 -21.554688 25.757812 -21.546875 24.46875 -21.546875 L 19.71875 -21.546875 L 19.421875 -19.359375 L 18.203125 -10.765625 L 17.890625 -8.515625 L 31.28125 -8.515625 C 31.113281 -7.265625 30.96875 -6.234375 30.84375 -5.421875 C 30.726562 -4.609375 30.609375 -3.976562 30.484375 -3.53125 C 30.160156 -2.394531 29.753906 -1.582031 29.265625 -1.09375 C 28.742188 -0.644531 27.851562 -0.320312 26.59375 -0.125 C 26.1875 -0.0820312 25.585938 -0.0507812 24.796875 -0.03125 C 24.003906 -0.0078125 23.019531 0 21.84375 0 L 16.3125 0 C 15.257812 0 14.363281 -0.0078125 13.625 -0.03125 C 12.894531 -0.0507812 12.3125 -0.0625 11.875 -0.0625 C 10.332031 -0.21875 9.335938 -0.625 8.890625 -1.28125 C 8.640625 -1.726562 8.515625 -2.316406 8.515625 -3.046875 L 8.515625 -3.953125 C 8.640625 -4.765625 8.882812 -6.285156 9.25 -8.515625 L 9.5625 -10.765625 L 10.765625 -19.359375 L 11.078125 -21.546875 L 2.4375 -21.546875 C 2.59375 -22.640625 2.734375 -23.550781 2.859375 -24.28125 C 2.984375 -25.007812 3.066406 -25.554688 3.109375 -25.921875 C 3.472656 -27.460938 3.914062 -28.5 4.4375 -29.03125 C 4.757812 -29.269531 5.132812 -29.476562 5.5625 -29.65625 C 5.988281 -29.84375 6.507812 -29.957031 7.125 -30 C 7.53125 -30.082031 8.054688 -30.125 8.703125 -30.125 C 9.347656 -30.125 10.117188 -30.125 11.015625 -30.125 L 12.296875 -30.125 Z M 14 -42.609375 "/></g></g></g></svg>